<svg width="178" height="178" viewBox="0 0 178 178" xmlns="http://www.w3.org/2000/svg" xmlns:xlink="http://www.w3.org/1999/xlink"><defs><rect id="a" width="178" height="178" rx="5"/></defs><g fill="none" fill-rule="evenodd"><mask id="b" fill="#fff"><use xlink:href="#a"/></mask><use fill="#434C5E" xlink:href="#a"/><path d="M89.3235 36.326c-16.1066 0-30.9812 2.1756-42.7493 7.269-15.723 6.8048-24.741 18.4183-24.741 35.1816 0 15 9.9286 31.743 28.4727 53.727.606.74 1.279 1.527 2.193 2.5727-.091-.1043 1.7473 1.99 2.2556 2.5768 6.231 7.195 8.811 12.12 8.811 19.025v108.505c0 6.0673 5.7792 11.8465 11.8466 11.8465h27.8218c6.0675 0 11.8466-5.7792 11.8466-11.8465V156.678c0-6.905 2.58-11.83 8.811-19.0247.5084-.5868 2.3468-2.681 2.2556-2.5767.9145-1.0458 1.5873-1.8326 2.225-2.6106 18.5125-21.946 28.441-38.689 28.441-53.689 0-16.7635-9.018-28.377-24.7408-35.182-11.768-5.0933-26.6428-7.269-42.7493-7.269zm23.799 66.7724h-47.598c-6.3815-5.477-14.4337-18.379-14.4337-24.3218 0-8.6836 15.0507-13.193 38.2327-13.193 23.182 0 38.2327 4.5094 38.2327 13.193 0 5.943-8.0522 18.8448-14.4338 24.3218z" stroke="#ECEFF4" stroke-width="7" mask="url(#b)"/></g></svg>